Coordinates
version=1
nRows=10
nColumns=40
inDegrees=yes

Units are S.I. units (second, meters, Newtons, ...)
Angles are in degrees.

endheader
time	pelvis_tilt	pelvis_list	pelvis_rotation	pelvis_tx	pelvis_ty	pelvis_tz	hip_flexion_r	hip_adduction_r	hip_rotation_r	knee_angle_r	knee_angle_r_beta	ankle_angle_r	subtalar_angle_r	mtp_angle_r	hip_flexion_l	hip_adduction_l	hip_rotation_l	knee_angle_l	knee_angle_l_beta	ankle_angle_l	subtalar_angle_l	mtp_angle_l	lumbar_extension	lumbar_bending	lumbar_rotation	arm_flex_r	arm_add_r	arm_rot_r	elbow_flex_r	pro_sup_r	wrist_flex_r	wrist_dev_r	arm_flex_l	arm_add_l	arm_rot_l	elbow_flex_l	pro_sup_l	wrist_flex_l	wrist_dev_l
     25.22000000	     -4.80826071	     -5.65897303	     -0.65439314	      1.03259782	      0.93303242	      0.42080169	     35.68011315	     -2.00106881	     -5.68867443	     70.84753379	     70.84753379	     -0.50838267	    -18.52769812	      7.14635995	     17.29218330	     -6.18925562	     -8.54367841	     22.13439350	     22.13439350	     11.69279710	    -14.57447983	      1.66011830	    -11.08880345	      6.47875995	      3.03102575	      2.77863095	    -12.83648697	     -5.87992864	     32.60487498	     46.04749806	      0.00000000	      0.00000000	     18.47373029	    -16.81668628	      8.25379844	     48.24979077	     46.59172692	      0.00000000	      0.00000000
     25.23178571	     -4.79618515	     -5.59840274	     -0.88900377	      1.03160855	      0.93393258	      0.42035813	     36.55125576	     -1.96181472	     -5.51401538	     68.89847927	     68.89847927	     -0.45739874	    -18.26816220	      6.79493292	     16.36225797	     -6.04786231	     -8.76105259	     21.36370699	     21.36370699	     11.81811788	    -14.50987485	      1.65628810	    -11.24599589	      6.63331338	      3.41406385	      0.84692525	    -13.02334750	     -5.82849933	     31.31813101	     46.08295723	      0.00000000	      0.00000000	     19.84416021	    -16.96045033	      7.86739852	     49.79733954	     46.65774823	      0.00000000	      0.00000000
     25.24357143	     -4.81751940	     -5.56684865	     -1.09396719	      1.03052660	      0.93463398	      0.42006413	     37.28351217	     -1.90832802	     -5.44147267	     66.68222879	     66.68222879	     -0.57868027	    -18.04761027	      5.68706380	     15.57618890	     -5.97433920	     -9.01507168	     20.75530801	     20.75530801	     11.80276657	    -14.42379539	      1.37634988	    -11.52385051	      6.70491835	      3.71728876	     -0.95748953	    -13.12634613	     -5.95241616	     29.66068644	     46.14905996	      0.00000000	      0.00000000	     20.84920648	    -17.30479168	      7.22972353	     52.42107603	     46.75734877	      0.00000000	      0.00000000
     25.25535714	     -4.82173830	     -5.63763151	     -1.28682562	      1.02954370	      0.93540999	      0.41980649	     37.79357332	     -1.70627573	     -5.42850806	     64.13151506	     64.13151506	     -0.62017794	    -17.76679631	      5.25347800	     14.72482519	     -5.99271209	     -9.23129957	     20.04619322	     20.04619322	     11.90644370	    -14.22773401	      1.29844128	    -11.73969212	      6.95384282	      3.86075162	     -2.63766711	    -13.27395279	     -6.03814785	     28.37679745	     46.19804416	      0.00000000	      0.00000000	     21.83526669	    -17.56085337	      6.65382158	     54.38358074	     46.84091473	      0.00000000	      0.00000000
     25.26714286	     -4.89767977	     -5.67170254	     -1.42743886	      1.02851239	      0.93585093	      0.41949589	     38.17743384	     -1.64124784	     -5.56686777	     61.20267465	     61.20267465	     -1.27627404	    -17.57038207	      2.88181458	     14.03553687	     -5.97592435	     -9.42578821	     19.43935224	     19.43935224	     11.81682055	    -14.14684852	      0.68853507	    -11.89690837	      7.15142738	      3.18870233	     -3.44510730	    -13.13364946	     -6.65697239	     26.24612933	     46.34324541	      0.00000000	      0.00000000	     21.53641070	    -18.44610017	      4.94922541	     58.66983859	     47.04471948	      0.00000000	      0.00000000
     25.27892857	     -4.95700956	     -5.72904781	     -1.60598581	      1.02746083	      0.93628418	      0.41938362	     38.43473447	     -1.44228516	     -5.63549834	     58.07424826	     58.07424826	     -1.13123437	    -17.01527244	      2.80885940	     13.35644619	     -5.99181311	     -9.57312787	     18.90780801	     18.90780801	     11.96130595	    -14.00440623	      0.71372701	    -12.05975446	      7.36592214	      3.47240265	     -5.10589064	    -13.31034244	     -6.70366864	     25.24329490	     46.37886295	      0.00000000	      0.00000000	     22.68693320	    -18.56434127	      4.34819525	     60.11849644	     47.12440643	      0.00000000	      0.00000000
     25.29071429	     -5.08580276	     -5.82670018	     -1.73651792	      1.02643658	      0.93650306	      0.41932806	     38.56923447	     -1.25718415	     -5.88723120	     54.58705683	     54.58705683	     -1.02609329	    -16.22134043	      2.68720248	     12.81295986	     -6.05782524	     -9.69119512	     18.46732425	     18.46732425	     12.15548388	    -13.88098669	      0.67987461	    -12.10483746	      7.61242547	      3.53318070	     -6.70740931	    -13.42281530	     -6.77744834	     24.47175312	     46.40663518	      0.00000000	      0.00000000	     23.64149142	    -18.69721967	      3.79616473	     61.68883399	     47.19906009	      0.00000000	      0.00000000
     25.30250000	     -5.22436050	     -5.90997477	     -1.85634104	      1.02544794	      0.93655315	      0.41937110	     38.50648868	     -1.08331849	     -6.22300414	     50.75746902	     50.75746902	     -0.82515540	    -15.22591272	      2.45181462	     12.31367348	     -6.11992924	     -9.81113970	     18.08328987	     18.08328987	     12.34492383	    -13.76541285	      0.62727809	    -12.14479272	      7.86768421	      3.66962895	     -8.26886770	    -13.50011190	     -6.86895641	     23.85691135	     46.42921240	      0.00000000	      0.00000000	     24.49029069	    -18.83779169	      3.19609512	     63.47167508	     47.27911768	      0.00000000	      0.00000000
     25.31428571	     -5.28730883	     -5.87530403	     -2.05620058	      1.02458358	      0.93648407	      0.41966969	     38.16952693	     -0.97882565	     -6.57306431	     46.60840185	     46.60840185	     -0.90363145	    -13.97057354	      1.09149236	     11.72829782	     -6.09550161	    -10.08904276	     17.74758348	     17.74758348	     12.56023190	    -13.57780218	      0.46922929	    -12.37461421	      7.85252869	      3.93095530	     -9.94882828	    -13.48405960	     -7.15978226	     23.64227187	     46.45369304	      0.00000000	      0.00000000	     24.86029387	    -18.88148082	      1.96077033	     67.00338968	     47.43071822	      0.00000000	      0.00000000
     25.32607143	     -5.52237830	     -5.94820813	     -2.14421009	      1.02378506	      0.93613074	      0.41998032	     37.60052334	     -0.74899376	     -7.13475880	     41.78029654	     41.78029654	     -1.73268040	    -13.02070414	     -2.07127073	     11.40592160	     -6.17718978	    -10.15495979	     17.50968633	     17.50968633	     12.76191037	    -13.47752537	      0.24133556	    -12.32193077	      8.01521207	      3.03111320	    -11.01592348	    -13.59084566	     -7.62199368	     24.09944093	     46.48054737	      0.00000000	      0.00000000	     24.16674390	    -19.53984487	     -0.23962463	     70.58112927	     47.64629333	      0.00000000	      0.00000000
